# Blender 4.0.2
# www.blender.org
mtllib room_kitchen Textured.mtl
o room_kitchen
v -4.798462 -0.011230 5.159808
v -4.798462 5.992015 5.159808
v -4.798462 -0.011230 -5.159808
v -4.798462 5.992014 -5.159809
v 4.798462 -0.011230 5.159808
v 4.798462 5.992015 5.159808
v 4.798462 -0.011230 -5.159808
v 4.798462 5.992014 -5.159809
v -4.798462 1.989852 5.159808
v -4.798462 3.990934 5.159808
v -4.798462 1.989851 -5.159808
v -4.798462 3.990933 -5.159809
v 4.798462 1.989852 5.159808
v 4.798462 3.990934 5.159808
vn 1.0000 -0.0000 -0.0000
vn -0.0000 -0.0000 -1.0000
vn -0.0000 1.0000 -0.0000
vn -0.0000 -1.0000 -0.0000
vt 0.426518 0.077465
vt 4.178107 0.077118
vt 4.178177 0.804591
vt 0.426587 0.804939
vt -3.062349 0.077791
vt -3.062279 0.805264
vt 0.975099 0.942522
vt 0.032746 0.942609
vt 0.032665 0.066249
vt 0.975020 0.066162
vt 0.672851 0.921933
vt 0.327227 0.921965
vt 0.327198 0.600546
vt 0.672821 0.600514
vt -0.465386 0.085813
vt 0.569771 0.085716
vt 0.569791 0.301560
vt -0.465366 0.301656
vt -2.803312 0.012630
vt 0.484979 0.012324
vt 0.485044 0.697975
vt -2.803248 0.698282
vt 1.682879 0.085613
vt 1.682899 0.301457
vt 4.020890 0.011996
vt 4.020955 0.697647
s 0
usemtl Top_Wall
f 10/1/1 12/2/1 4/3/1 2/4/1
f 14/5/2 10/1/2 2/4/2 6/6/2
usemtl Floor.001
f 3/7/3 1/8/3 5/9/3 7/10/3
usemtl Ceiling.001
f 8/11/4 6/12/4 2/13/4 4/14/4
usemtl Middle_Wall
f 13/19/2 9/20/2 10/21/2 14/22/2
f 9/20/1 11/25/1 12/26/1 10/21/1
usemtl Lower_Wall
f 5/15/2 1/16/2 9/17/2 13/18/2
f 1/16/1 3/23/1 11/24/1 9/17/1
